<svg id="visual" viewBox="0 0 920 300" width="920" height="300" xmlns="http://www.w3.org/2000/svg" xmlns:xlink="http://www.w3.org/1999/xlink" version="1.1"><rect x="0" y="0" width="920" height="300" fill="#021f35"></rect><path d="M0 153L38.3 141.2C76.7 129.3 153.3 105.7 230 99.3C306.7 93 383.3 104 460 114.5C536.7 125 613.3 135 690 129.8C766.7 124.7 843.3 104.3 881.7 94.2L920 84L920 0L881.7 0C843.3 0 766.7 0 690 0C613.3 0 536.7 0 460 0C383.3 0 306.7 0 230 0C153.3 0 76.7 0 38.3 0L0 0Z" fill="#2722b7"></path><path d="M0 99L38.3 96.5C76.7 94 153.3 89 230 88.8C306.7 88.7 383.3 93.3 460 89.3C536.7 85.3 613.3 72.7 690 66.3C766.7 60 843.3 60 881.7 60L920 60L920 0L881.7 0C843.3 0 766.7 0 690 0C613.3 0 536.7 0 460 0C383.3 0 306.7 0 230 0C153.3 0 76.7 0 38.3 0L0 0Z" fill="#25229c"></path><path d="M0 75L38.3 70.3C76.7 65.7 153.3 56.3 230 52.5C306.7 48.7 383.3 50.3 460 54.8C536.7 59.3 613.3 66.7 690 68C766.7 69.3 843.3 64.7 881.7 62.3L920 60L920 0L881.7 0C843.3 0 766.7 0 690 0C613.3 0 536.7 0 460 0C383.3 0 306.7 0 230 0C153.3 0 76.7 0 38.3 0L0 0Z" fill="#232081"></path><path d="M0 47L38.3 42.2C76.7 37.3 153.3 27.7 230 25C306.7 22.3 383.3 26.7 460 30.3C536.7 34 613.3 37 690 38.2C766.7 39.3 843.3 38.7 881.7 38.3L920 38L920 0L881.7 0C843.3 0 766.7 0 690 0C613.3 0 536.7 0 460 0C383.3 0 306.7 0 230 0C153.3 0 76.7 0 38.3 0L0 0Z" fill="#221e67"></path></svg>