<svg id="visual" viewBox="0 0 920 300" width="920" height="300" xmlns="http://www.w3.org/2000/svg" xmlns:xlink="http://www.w3.org/1999/xlink" version="1.1"><rect x="0" y="0" width="920" height="300" fill="#dd3f31"></rect><path d="M0 191L131 213L263 183L394 181L526 223L657 189L789 203L920 220L920 301L789 301L657 301L526 301L394 301L263 301L131 301L0 301Z" fill="#3bb414"></path><path d="M0 227L131 205L263 233L394 212L526 232L657 235L789 239L920 234L920 301L789 301L657 301L526 301L394 301L263 301L131 301L0 301Z" fill="#2c9a11"></path><path d="M0 236L131 237L263 248L394 254L526 233L657 222L789 249L920 226L920 301L789 301L657 301L526 301L394 301L263 301L131 301L0 301Z" fill="#1e810d"></path><path d="M0 263L131 248L263 266L394 258L526 264L657 243L789 259L920 259L920 301L789 301L657 301L526 301L394 301L263 301L131 301L0 301Z" fill="#116909"></path><path d="M0 283L131 276L263 285L394 278L526 279L657 262L789 275L920 268L920 301L789 301L657 301L526 301L394 301L263 301L131 301L0 301Z" fill="#055205"></path></svg>